<svg id="Capa_1" enable-background="new 0 0 510 510" height="512" viewBox="0 0 510 510" width="512" xmlns="http://www.w3.org/2000/svg"><g><path d="m75 0c-24.813 0-45 20.187-45 45v405l225-60 10-169-10-221z" fill="#ff6c68"/><path d="m480 0h-225v390l119.5 19.5 105.5-19.5z" fill="#ff4735"/><path d="m90 405c-24.853 0-45 20.147-45 45 0 24.853 20.147 45 45 45h165l10-48-10-42z" fill="#f2f0ff"/><path d="m255 420v60l112.5 10 112.5-10v-60l-115.5-10z" fill="#e2dff5"/><path d="m90 60v300l165-79.106 10-104.894-10-116z" fill="#f2f0ff"/><path d="m255 60v220.894l165 28.106v-249z" fill="#e2dff5"/><path d="m90 420h165l10-12.333-10-17.667h-165c-33.084 0-60 26.916-60 60s26.916 60 60 60h165l10-12.667-10-17.333h-165c-16.542 0-30-13.458-30-30s13.458-30 30-30z" fill="#ff4735"/><path d="m240 120v30h15l10-15-10-15z" fill="#ffdb00"/><path d="m255 120h15v30h-15z" fill="#ffb51c"/><path d="m191.582 165.736-101.582 194.264h165l10-33-10-46.106z" fill="#95e02a"/><path d="m255 280.894v79.106h43.564l-11.814-37.25z" fill="#54c466"/><path d="m255 280.875 43.564 79.125h121.436v-51l-90-144z" fill="#00a669"/><g fill="#b70e09"><path d="m255 480h225v30h-225z"/><path d="m255 390h225v30h-225z"/></g></g></svg>